HIERARCHY
ROOT Hips
{
	OFFSET 0.000000 83.214638 0.000000
	CHANNELS 6 Xposition Yposition Zposition Xrotation Yrotation Zrotation
	JOINT Pelvis
	{
		OFFSET 0.000000 0.000000 0.000000
		CHANNELS 3 Xrotation Yrotation Zrotation
		JOINT LeftUpLeg
		{
			OFFSET 8.479700 -4.795502 -0.379100
			CHANNELS 3 Xrotation Yrotation Zrotation
			JOINT LeftLeg
			{
				OFFSET 0.024144 -32.555107 0.112900
				CHANNELS 3 Xrotation Yrotation Zrotation
				JOINT LeftFoot
				{
					OFFSET -0.024144 -32.638630 -3.012600
					CHANNELS 3 Xrotation Yrotation Zrotation
					JOINT LeftToeBase
					{
						OFFSET 0.970200 -13.225400 11.864200
						CHANNELS 3 Xrotation Yrotation Zrotation
						End Site
						{
							OFFSET 0.000000 12.319262 0.000000
						}
					}
					JOINT LFootTongue
					{
						OFFSET 1.142400 -1.059800 6.665200
						CHANNELS 3 Xrotation Yrotation Zrotation
						End Site
						{
							OFFSET 0.000000 12.319262 0.000000
						}
					}
				}
				JOINT LeftPantLeg
				{
					OFFSET 0.918482 -16.533964 -2.284700
					CHANNELS 3 Xrotation Yrotation Zrotation
					End Site
					{
						OFFSET 0.350399 24.744368 0.000000
					}
				}
			}
		}
		JOINT RightUpLeg
		{
			OFFSET -8.479700 -4.795502 -0.379100
			CHANNELS 3 Xrotation Yrotation Zrotation
			JOINT RightLeg
			{
				OFFSET -0.023144 -32.555092 0.112900
				CHANNELS 3 Xrotation Yrotation Zrotation
				JOINT RightFoot
				{
					OFFSET 0.023144 -32.638641 -3.012700
					CHANNELS 3 Xrotation Yrotation Zrotation
					JOINT RightToeBase
					{
						OFFSET -0.970200 -13.225400 11.864200
						CHANNELS 3 Xrotation Yrotation Zrotation
						End Site
						{
							OFFSET 0.000000 12.319244 0.000000
						}
					}
					JOINT RFootTongue
					{
						OFFSET -1.142200 -1.059800 6.665200
						CHANNELS 3 Xrotation Yrotation Zrotation
						End Site
						{
							OFFSET 0.000000 12.319243 0.000000
						}
					}
				}
				JOINT RightPantLeg
				{
					OFFSET -0.919482 -16.533978 -2.284800
					CHANNELS 3 Xrotation Yrotation Zrotation
					End Site
					{
						OFFSET -0.350400 24.744419 0.000000
					}
				}
			}
		}
	}
	JOINT Spine
	{
		OFFSET 0.000000 7.722000 1.166200
		CHANNELS 3 Xrotation Yrotation Zrotation
		JOINT Spine1
		{
			OFFSET 0.000000 12.024101 0.248800
			CHANNELS 3 Xrotation Yrotation Zrotation
			JOINT Spine2
			{
				OFFSET 0.000000 11.502998 -0.491200
				CHANNELS 3 Xrotation Yrotation Zrotation
				JOINT Neck
				{
					OFFSET 0.000000 18.430702 -3.123100
					CHANNELS 3 Xrotation Yrotation Zrotation
					JOINT Head
					{
						OFFSET 0.000000 9.051102 1.034000
						CHANNELS 3 Xrotation Yrotation Zrotation
						JOINT HairB
						{
							OFFSET 0.208400 24.786102 24.822300
							CHANNELS 3 Xrotation Yrotation Zrotation
							End Site
							{
								OFFSET 0.000000 32.263779 0.000000
							}
						}
						JOINT HairA
						{
							OFFSET -7.081100 24.428299 23.196600
							CHANNELS 3 Xrotation Yrotation Zrotation
							End Site
							{
								OFFSET 0.000000 32.263779 0.000000
							}
						}
						JOINT Hat
						{
							OFFSET 16.728800 15.048294 -15.439601
							CHANNELS 3 Xrotation Yrotation Zrotation
							End Site
							{
								OFFSET 0.000000 32.263779 0.000000
							}
						}
					}
				}
				JOINT LeftShoulder
				{
					OFFSET 6.197800 13.665199 -4.064700
					CHANNELS 3 Xrotation Yrotation Zrotation
					JOINT LeftArm
					{
						OFFSET 7.778100 -0.187103 -1.709300
						CHANNELS 3 Xrotation Yrotation Zrotation
						JOINT LeftForeArm
						{
							OFFSET 22.049376 0.000000 0.000000
							CHANNELS 3 Xrotation Yrotation Zrotation
							JOINT LeftHand
							{
								OFFSET 23.009392 0.000000 0.000000
								CHANNELS 3 Xrotation Yrotation Zrotation
								JOINT LeftHandThumb1
								{
									OFFSET 3.507191 -2.063065 3.133727
									CHANNELS 3 Xrotation Yrotation Zrotation
									JOINT LeftHandThumb2
									{
										OFFSET 3.101337 -1.790558 1.790558
										CHANNELS 3 Xrotation Yrotation Zrotation
										JOINT LeftHandThumb3
										{
											OFFSET 3.058640 -1.765907 1.765906
											CHANNELS 3 Xrotation Yrotation Zrotation
											End Site
											{
												OFFSET -0.415260 3.926476 -0.049563
											}
										}
									}
								}
								JOINT LeftHandIndex1
								{
									OFFSET 11.334419 -0.901459 3.706815
									CHANNELS 3 Xrotation Yrotation Zrotation
									JOINT LeftHandIndex2
									{
										OFFSET 3.283112 0.000000 0.000000
										CHANNELS 3 Xrotation Yrotation Zrotation
										JOINT LeftHandIndex3
										{
											OFFSET 3.323853 0.000000 0.000000
											CHANNELS 3 Xrotation Yrotation Zrotation
											End Site
											{
												OFFSET -1.135597 3.097809 0.402452
											}
										}
									}
								}
								JOINT LeftHandMiddle1
								{
									OFFSET 11.335861 0.000000 0.000000
									CHANNELS 3 Xrotation Yrotation Zrotation
									JOINT LeftHandMiddle2
									{
										OFFSET 3.410492 0.000000 0.000000
										CHANNELS 3 Xrotation Yrotation Zrotation
										JOINT LeftHandMiddle3
										{
											OFFSET 3.312172 0.000000 0.000000
											CHANNELS 3 Xrotation Yrotation Zrotation
											End Site
											{
												OFFSET -1.150200 3.080154 0.400270
											}
										}
									}
								}
								JOINT LeftHandRing1
								{
									OFFSET 11.514786 -0.013176 -3.003090
									CHANNELS 3 Xrotation Yrotation Zrotation
									JOINT LeftHandRing2
									{
										OFFSET 3.053307 0.000000 0.000000
										CHANNELS 3 Xrotation Yrotation Zrotation
										JOINT LeftHandRing3
										{
											OFFSET 3.295807 0.000000 0.000000
											CHANNELS 3 Xrotation Yrotation Zrotation
											End Site
											{
												OFFSET -1.281006 3.013344 0.375733
											}
										}
									}
								}
								JOINT LeftHandPinky1
								{
									OFFSET 10.518692 -0.960396 -5.730441
									CHANNELS 3 Xrotation Yrotation Zrotation
									JOINT LeftHandPinky2
									{
										OFFSET 2.861649 0.000000 0.000000
										CHANNELS 3 Xrotation Yrotation Zrotation
										JOINT LeftHandPinky3
										{
											OFFSET 2.863380 0.000000 0.000000
											CHANNELS 3 Xrotation Yrotation Zrotation
											End Site
											{
												OFFSET -0.843597 2.711159 0.369971
											}
										}
									}
								}
							}
							JOINT LSleeve
							{
								OFFSET 6.676277 -0.344902 -1.011730
								CHANNELS 3 Xrotation Yrotation Zrotation
								End Site
								{
									OFFSET 0.000000 14.885353 0.000000
								}
							}
						}
					}
				}
				JOINT RightShoulder
				{
					OFFSET -6.197800 13.665199 -4.064700
					CHANNELS 3 Xrotation Yrotation Zrotation
					JOINT RightArm
					{
						OFFSET -7.778100 -0.187103 -1.709300
						CHANNELS 3 Xrotation Yrotation Zrotation
						JOINT RightForeArm
						{
							OFFSET -22.049376 0.000000 0.000000
							CHANNELS 3 Xrotation Yrotation Zrotation
							JOINT RightHand
							{
								OFFSET -23.009392 0.000000 0.000000
								CHANNELS 3 Xrotation Yrotation Zrotation
								JOINT RightHandThumb1
								{
									OFFSET -3.507191 -2.063065 3.133727
									CHANNELS 3 Xrotation Yrotation Zrotation
									JOINT RightHandThumb2
									{
										OFFSET -3.101337 -1.790558 1.790558
										CHANNELS 3 Xrotation Yrotation Zrotation
										JOINT RightHandThumb3
										{
											OFFSET -3.058640 -1.765907 1.765906
											CHANNELS 3 Xrotation Yrotation Zrotation
											End Site
											{
												OFFSET 0.415260 3.926476 -0.049563
											}
										}
									}
								}
								JOINT RightHandIndex1
								{
									OFFSET -11.334419 -0.901459 3.706815
									CHANNELS 3 Xrotation Yrotation Zrotation
									JOINT RightHandIndex2
									{
										OFFSET -3.283112 0.000000 0.000000
										CHANNELS 3 Xrotation Yrotation Zrotation
										JOINT RightHandIndex3
										{
											OFFSET -3.323853 0.000000 0.000000
											CHANNELS 3 Xrotation Yrotation Zrotation
											End Site
											{
												OFFSET 1.135597 3.097809 0.402452
											}
										}
									}
								}
								JOINT RightHandMiddle1
								{
									OFFSET -11.335861 0.000000 0.000000
									CHANNELS 3 Xrotation Yrotation Zrotation
									JOINT RightHandMiddle2
									{
										OFFSET -3.410492 0.000000 0.000000
										CHANNELS 3 Xrotation Yrotation Zrotation
										JOINT RightHandMiddle3
										{
											OFFSET -3.312172 0.000000 0.000000
											CHANNELS 3 Xrotation Yrotation Zrotation
											End Site
											{
												OFFSET 1.150200 3.080154 0.400270
											}
										}
									}
								}
								JOINT RightHandRing1
								{
									OFFSET -11.514786 -0.013176 -3.003090
									CHANNELS 3 Xrotation Yrotation Zrotation
									JOINT RightHandRing2
									{
										OFFSET -3.053307 0.000000 0.000000
										CHANNELS 3 Xrotation Yrotation Zrotation
										JOINT RightHandRing3
										{
											OFFSET -3.295807 0.000000 0.000000
											CHANNELS 3 Xrotation Yrotation Zrotation
											End Site
											{
												OFFSET 1.281006 3.013344 0.375733
											}
										}
									}
								}
								JOINT RightHandPinky1
								{
									OFFSET -10.518692 -0.960396 -5.730441
									CHANNELS 3 Xrotation Yrotation Zrotation
									JOINT RightHandPinky2
									{
										OFFSET -2.861649 0.000000 0.000000
										CHANNELS 3 Xrotation Yrotation Zrotation
										JOINT RightHandPinky3
										{
											OFFSET -2.863380 0.000000 0.000000
											CHANNELS 3 Xrotation Yrotation Zrotation
											End Site
											{
												OFFSET 0.843597 2.711159 0.369971
											}
										}
									}
								}
							}
							JOINT RSleeve
							{
								OFFSET -6.676277 -0.344902 -1.011730
								CHANNELS 3 Xrotation Yrotation Zrotation
								End Site
								{
									OFFSET 0.000000 14.885353 0.000000
								}
							}
						}
					}
				}
				JOINT Backpack
				{
					OFFSET 0.000000 -2.471497 36.677502
					CHANNELS 3 Xrotation Yrotation Zrotation
					End Site
					{
						OFFSET 0.000000 20.427315 0.000000
					}
				}
				JOINT Hood
				{
					OFFSET 0.000000 18.754097 -10.431000
					CHANNELS 3 Xrotation Yrotation Zrotation
					JOINT Hood1
					{
						OFFSET 0.000000 -5.011002 -7.685901
						CHANNELS 3 Xrotation Yrotation Zrotation
						End Site
						{
							OFFSET 0.000000 9.175140 0.000000
						}
					}
				}
				JOINT LHoodieString
				{
					OFFSET 5.250500 16.397697 3.089900
					CHANNELS 3 Xrotation Yrotation Zrotation
					JOINT LHoodieString1
					{
						OFFSET 0.257700 -6.364304 3.694600
						CHANNELS 3 Xrotation Yrotation Zrotation
						JOINT LHoodieString2
						{
							OFFSET 0.000000 -9.643799 2.679100
							CHANNELS 3 Xrotation Yrotation Zrotation
							End Site
							{
								OFFSET 0.000000 10.009018 0.000000
							}
						}
					}
				}
				JOINT RHoodieString
				{
					OFFSET -5.250500 16.397697 3.089900
					CHANNELS 3 Xrotation Yrotation Zrotation
					JOINT RHoodieString1
					{
						OFFSET -0.257700 -6.364304 3.694600
						CHANNELS 3 Xrotation Yrotation Zrotation
						JOINT RHoodieString2
						{
							OFFSET 0.000000 -9.643799 2.679100
							CHANNELS 3 Xrotation Yrotation Zrotation
							End Site
							{
								OFFSET 0.000000 10.009018 0.000000
							}
						}
					}
				}
			}
			JOINT LBackpack_Strap
			{
				OFFSET 15.223200 -7.719803 -6.610900
				CHANNELS 3 Xrotation Yrotation Zrotation
				End Site
				{
					OFFSET 0.000000 16.040596 0.000000
				}
			}
			JOINT RBackpack_Strap
			{
				OFFSET -15.223000 -7.719803 -6.610900
				CHANNELS 3 Xrotation Yrotation Zrotation
				End Site
				{
					OFFSET 0.000000 16.040596 0.000000
				}
			}
		}
	}
	JOINT BoyFacialAnim_Joint
	{
		OFFSET 1.000000 -82.208099 -1.550900
		CHANNELS 3 Xrotation Yrotation Zrotation
		End Site
		{
			OFFSET 0.000000 30.012791 0.000000
		}
	}
}
MOTION
Frames: 4
Frame Time: 0.033333
-0.203962 80.775398 0.570618 2.379623 -11.981316 -0.555503 -0.000000 0.000001 -0.000000 -19.395301 11.951084 13.840624 20.691737 5.101070 1.905636 -2.252471 5.345762 -11.029107 0.000000 -0.000001 -0.000000 0.000000 -0.000001 -0.000000 -0.000000 -0.000000 -0.000000 -12.771555 -8.405483 -6.876800 21.725886 -5.116485 -1.776070 -10.544427 -0.583052 8.993693 0.000000 0.000000 -0.000000 0.000000 0.000000 -0.000000 0.000001 0.000000 0.000000 9.422404 2.006500 0.474672 2.870546 4.029879 0.917349 -9.001475 3.754918 1.727679 -3.883565 2.069966 -6.982848 5.912193 -0.105666 7.514132 0.000001 0.000000 0.000000 0.000001 0.000000 0.000000 0.000001 0.000000 0.000000 -1.295766 0.077897 -4.827723 -3.652880 -0.069566 -73.007018 -0.000042 -15.717654 -0.000159 2.306650 0.164985 -5.013346 8.265285 -7.734420 18.880844 5.407332 20.572718 -9.835124 0.000001 -0.000000 0.000002 0.273658 -4.246494 -3.910726 0.097433 -0.794739 -17.447600 -0.000002 -0.000001 -0.000002 0.248943 -1.909193 -12.464963 -0.126937 -0.878896 -17.469073 0.000001 -0.000001 -0.000002 0.311234 -1.760768 -17.977509 -0.194389 -1.090496 -20.983260 -0.000000 0.000002 0.000002 0.622110 -0.700676 -24.132831 -0.024663 -0.945225 -17.465333 -0.000001 0.000001 0.000002 0.000001 0.000001 -0.000002 -1.295778 -0.077844 4.827739 3.909574 3.069694 67.997620 0.000021 18.090128 0.000001 2.313870 -1.593428 -2.170026 8.265289 7.734433 -18.880847 5.407319 -20.572678 9.835166 0.000000 0.000001 0.000002 0.272392 4.252696 3.917157 0.097402 0.794921 17.452807 0.000000 0.000001 0.000000 0.250239 1.903656 12.463711 -0.127003 0.878931 17.470178 0.000000 0.000000 -0.000002 0.310455 1.762637 17.988958 -0.194380 1.090561 20.984689 -0.000000 0.000000 0.000002 0.626374 0.701977 24.132071 -0.024627 0.945185 17.464129 0.000001 -0.000001 0.000002 0.000000 -0.000001 -0.000001 0.000000 0.000000 -0.000000 0.000000 0.000000 -0.000000 0.000000 0.000000 -0.000000 0.000000 0.000000 -0.000000 0.000000 0.000000 -0.000000 -0.000000 -0.000000 0.000000 0.000000 0.000000 -0.000000 0.000000 0.000000 -0.000000 -0.000000 -0.000000 0.000000 0.000000 0.000000 -0.000000 0.000000 0.000000 -0.000000 -0.000000 0.000001 -0.000000 
0.018739 80.724892 0.705303 2.311630 -11.569357 -0.613470 -0.000000 -0.000000 0.000000 -19.705179 11.921302 13.717791 21.424454 4.855100 1.917828 -2.733236 5.211056 -10.821718 -0.000000 0.000000 -0.000000 -0.000000 0.000000 -0.000000 -0.000000 -0.000000 -0.000001 -12.615320 -8.675238 -7.114346 21.783932 -5.138924 -1.795372 -10.651040 -0.672395 9.255610 0.000000 -0.000000 0.000000 0.000000 -0.000000 0.000000 0.000000 -0.000001 -0.000001 9.466858 1.889687 0.538744 2.880347 3.986150 0.891435 -8.971862 3.774008 1.732700 -3.621856 1.853311 -6.947272 5.741032 -0.242419 7.522889 0.000000 0.000000 -0.000000 0.000000 0.000000 -0.000000 0.000000 0.000000 -0.000000 -1.293451 -0.063212 -4.812623 -3.423033 -0.019266 -72.724091 -0.093158 -16.235402 0.031495 1.932054 -0.223685 -4.947824 8.265289 -7.734423 18.880936 5.407328 20.572692 -9.835212 0.000002 -0.000000 -0.000002 0.273628 -4.246520 -3.910767 0.097462 -0.794754 -17.447597 0.000001 -0.000001 -0.000000 0.248900 -1.909203 -12.464983 -0.126935 -0.878849 -17.469119 0.000002 -0.000003 -0.000000 0.311199 -1.760813 -17.977618 -0.194363 -1.090520 -20.983215 -0.000001 0.000000 -0.000000 0.622099 -0.700700 -24.132793 -0.024696 -0.945231 -17.465313 0.000000 0.000001 -0.000002 0.000000 -0.000000 -0.000001 -1.395543 0.051734 4.438213 7.224922 3.366088 67.029482 -0.649045 22.645769 0.400304 10.144769 -0.388710 1.944564 9.109868 6.849861 -18.266422 5.220925 -20.306950 9.765069 0.000003 -0.000002 -0.000002 0.209911 4.450105 3.477425 0.100335 0.777877 17.086171 -0.000001 -0.000001 -0.000000 0.296263 1.839009 12.231160 -0.108313 0.874871 17.128429 0.000002 0.000001 -0.000000 0.407302 1.492062 17.870760 -0.199130 1.054160 20.553750 -0.000000 0.000001 0.000002 0.776970 0.317769 23.871419 -0.033057 0.892220 16.930326 0.000004 0.000000 0.000002 0.000000 -0.000001 0.000001 -0.000000 -0.000000 0.000000 -0.000000 -0.000000 0.000000 -0.000000 -0.000000 0.000000 -0.000000 -0.000000 0.000000 -0.000000 -0.000000 -0.000000 -0.000001 -0.000000 -0.000000 -0.000000 -0.000000 0.000000 -0.000000 -0.000000 -0.000000 -0.000001 -0.000000 -0.000000 0.000000 -0.000000 0.000000 0.000000 -0.000000 0.000000 -0.000000 -0.000000 0.000000 
0.301275 80.668213 0.853901 2.196906 -11.122555 -0.664814 -0.000000 0.000001 -0.000000 -20.000396 11.917603 13.534323 22.239798 4.581442 1.932445 -3.281828 5.065035 -10.557060 -0.000000 0.000000 -0.000000 -0.000000 0.000000 -0.000000 -0.000000 -0.000001 0.000001 -12.398771 -8.892648 -7.359402 21.823925 -5.196946 -1.910571 -10.741731 -0.813912 9.622879 0.000000 -0.000000 -0.000000 0.000000 -0.000000 -0.000000 0.000001 0.000000 0.000000 9.509089 1.761356 0.560601 2.904124 3.887300 0.811305 -8.931267 3.741024 1.666960 -3.252929 1.537394 -6.734079 5.665346 -0.339494 7.347795 -0.000000 0.000000 0.000000 -0.000000 0.000000 0.000000 -0.000000 0.000000 0.000000 -1.320527 -0.283330 -4.633473 -2.867142 0.088065 -72.262438 -0.318613 -16.767431 -0.099972 1.617958 -0.987840 -4.626196 8.265256 -7.734441 18.880842 5.407315 20.572660 -9.835241 -0.000000 0.000000 0.000002 0.273656 -4.246517 -3.910662 0.097427 -0.794761 -17.447735 -0.000001 -0.000002 -0.000002 0.248920 -1.909223 -12.465016 -0.126980 -0.878877 -17.469124 0.000002 0.000000 0.000000 0.311208 -1.760819 -17.977623 -0.194365 -1.090536 -20.983210 -0.000001 -0.000001 0.000001 0.622117 -0.700720 -24.132911 -0.024663 -0.945245 -17.465291 -0.000000 0.000003 -0.000001 0.000000 -0.000001 -0.000001 -1.615037 0.418287 3.525346 11.367025 4.449848 65.715347 -2.378172 27.670462 2.017620 17.372357 1.489512 5.442572 10.745826 4.684011 -16.425126 4.740441 -19.621023 9.592352 -0.000003 -0.000001 -0.000002 0.063274 4.964923 2.344596 0.107473 0.733743 16.140480 -0.000001 0.000002 0.000000 0.412845 1.670549 11.631340 -0.059955 0.863683 16.247155 0.000003 0.000000 -0.000000 0.651785 0.792095 17.567866 -0.213192 0.960846 19.442133 0.000004 -0.000000 0.000000 1.149150 -0.679800 23.203350 -0.058204 0.756640 15.552880 -0.000001 -0.000001 0.000000 -0.000000 0.000001 -0.000000 -0.000000 -0.000000 -0.000000 -0.000000 -0.000000 -0.000000 -0.000000 -0.000000 -0.000000 -0.000000 -0.000000 -0.000000 -0.000000 -0.000000 -0.000001 -0.000000 -0.000000 -0.000000 -0.000000 -0.000000 -0.000000 -0.000000 -0.000000 -0.000001 -0.000000 -0.000000 -0.000000 0.000000 -0.000000 -0.000000 0.000000 -0.000000 -0.000000 -0.000000 0.000001 -0.000000 
0.646612 80.599663 1.017751 2.099095 -10.753668 -0.618577 0.000000 0.000001 0.000000 -20.274353 11.964750 13.206404 23.100545 4.356837 1.953989 -3.891922 4.956691 -10.248210 0.000000 -0.000000 -0.000000 0.000000 -0.000000 -0.000000 -0.000000 0.000001 -0.000000 -12.278289 -8.981683 -7.677147 21.953625 -5.281012 -2.164364 -10.842481 -1.009779 10.125895 -0.000000 -0.000000 0.000000 -0.000000 -0.000000 0.000000 -0.000000 -0.000001 -0.000001 9.530533 1.659897 0.548199 2.904803 3.811427 0.687440 -8.917380 3.730767 1.557152 -2.810264 1.277101 -6.626302 5.577994 -0.395158 7.283898 0.000001 -0.000000 0.000000 0.000001 -0.000000 0.000000 0.000001 -0.000000 0.000000 -1.348715 -0.493930 -4.445748 -2.262780 0.124308 -71.688395 -0.656055 -17.139513 -0.327518 1.693456 -1.968764 -4.519421 8.265248 -7.734394 18.880895 5.407333 20.572690 -9.835137 0.000001 -0.000000 -0.000001 0.273663 -4.246533 -3.910737 0.097414 -0.794704 -17.447718 0.000001 -0.000001 -0.000002 0.248963 -1.909217 -12.464920 -0.126972 -0.878875 -17.469081 0.000001 -0.000001 0.000000 0.311230 -1.760791 -17.977630 -0.194369 -1.090531 -20.983205 0.000001 -0.000002 0.000003 0.622125 -0.700687 -24.132870 -0.024671 -0.945237 -17.465357 0.000001 0.000002 0.000000 0.000000 0.000000 0.000004 -1.849095 0.968304 2.538386 14.949570 2.806843 64.649953 -4.498678 32.864756 5.255189 25.863818 3.682005 8.436061 11.858839 1.892257 -13.470466 4.083642 -18.681841 9.374903 0.000001 -0.000000 -0.000001 -0.102804 5.681090 0.798237 0.116009 0.673381 14.846671 -0.000004 -0.000001 0.000003 0.567026 1.436594 10.811837 0.006767 0.846187 15.041277 0.000003 0.000001 -0.000000 0.973746 -0.169784 17.158876 -0.236494 0.834761 17.920985 -0.000000 0.000001 0.000002 1.620005 -2.058904 22.298513 -0.100246 0.574035 13.668104 0.000004 -0.000001 0.000000 0.000000 -0.000003 -0.000000 -0.000000 0.000000 0.000000 -0.000000 0.000000 0.000000 -0.000000 0.000000 0.000000 -0.000000 0.000000 0.000000 -0.000000 0.000000 0.000000 -0.000000 -0.000000 0.000000 -0.000000 0.000000 0.000000 -0.000000 0.000000 0.000000 -0.000000 -0.000000 0.000000 0.000000 0.000000 -0.000000 0.000000 0.000000 -0.000000 0.000000 0.000001 0.000000 
